<svg width="30.342838" height="14.242401" viewBox="0 0 30.3428 14.2424" fill="none" xmlns="http://www.w3.org/2000/svg" xmlns:xlink="http://www.w3.org/1999/xlink">
	<desc>
			Created with Pixso.
	</desc>
	<defs/>
	<path id="Rectangle" d="M22.8009 0L4.44541 0C2.89965 0 2.33911 0.16095 1.774 0.463165C1.20889 0.765381 0.765393 1.20889 0.46317 1.77402C0.160945 2.33911 0 2.89966 0 4.4454L0 9.797C0 11.3428 0.160945 11.9033 0.46317 12.4684C0.765393 13.0335 1.20889 13.477 1.774 13.7792C2.33911 14.0815 2.89965 14.2424 4.44541 14.2424L22.8009 14.2424C24.3467 14.2424 24.9072 14.0815 25.4723 13.7792C26.0375 13.477 26.481 13.0335 26.7832 12.4684C27.0854 11.9033 27.2464 11.3428 27.2464 9.797L27.2464 4.4454C27.2464 2.89966 27.0854 2.33911 26.7832 1.77402C26.481 1.20889 26.0375 0.765381 25.4723 0.463165C24.9072 0.16095 24.3467 0 22.8009 0ZM4.4453 1.23859C3.22296 1.23859 2.79623 1.32098 2.35795 1.55539C2.00867 1.74219 1.74195 2.00888 1.55516 2.35818C1.32076 2.79645 1.23836 3.22318 1.23836 4.44553L1.23836 9.79709C1.23836 11.0194 1.32076 11.4462 1.55516 11.8845C1.74195 12.2337 2.00867 12.5005 2.35795 12.6873C2.79623 12.9216 3.22296 13.0041 4.4453 13.0041L22.8008 13.0041C24.0232 13.0041 24.4499 12.9216 24.8882 12.6873C25.2375 12.5005 25.5042 12.2337 25.691 11.8845C25.9254 11.4462 26.0078 11.0194 26.0078 9.79709L26.0078 4.44553C26.0078 3.22318 25.9254 2.79645 25.691 2.35818C25.5042 2.00888 25.2375 1.74219 24.8882 1.55539C24.4499 1.32098 24.0232 1.23859 22.8008 1.23859L4.4453 1.23859ZM30.3428 7.04709C30.3428 8.57855 28.4851 9.52405 28.4851 9.52405L28.4851 4.57016C28.4851 4.57016 30.3428 5.51562 30.3428 7.04709Z" clip-rule="evenodd" fill="#FFFFFF" fill-opacity="1.000000" fill-rule="evenodd"/>
	<rect id="Rectangle" x="2.477417" y="2.373840" rx="1.981553" width="22.292471" height="9.494942" fill="#FFFFFF" fill-opacity="1.000000"/>
</svg>
