<svg width="21.177872" height="13.251648" viewBox="0 0 21.1779 13.2516" fill="none" xmlns="http://www.w3.org/2000/svg" xmlns:xlink="http://www.w3.org/1999/xlink">
	<desc>
			Created with Pixso.
	</desc>
	<defs/>
	<path id="Combined Shape" d="M19.9816 0.0285645C19.8381 0 19.6654 0 19.3202 0C18.9749 0 18.8022 0 18.6587 0.0285645C18.0691 0.145813 17.6083 0.606689 17.491 1.19623C17.4625 1.33978 17.4625 1.51242 17.4625 1.8577L17.4625 11.3939C17.4625 11.7392 17.4625 11.9118 17.491 12.0554C17.6083 12.645 18.0691 13.1058 18.6587 13.2231C18.8022 13.2516 18.9749 13.2516 19.3202 13.2516C19.6654 13.2516 19.8381 13.2516 19.9816 13.2231C20.5712 13.1058 21.032 12.645 21.1493 12.0554C21.1779 11.9118 21.1779 11.7392 21.1779 11.3939L21.1779 1.8577C21.1779 1.51242 21.1779 1.33978 21.1493 1.19623C21.032 0.606689 20.5712 0.145813 19.9816 0.0285645ZM13.4992 2.97211C13.8445 2.97211 14.0171 2.97211 14.1607 3.00064C14.7502 3.11792 15.2111 3.57877 15.3284 4.16833C15.3569 4.31189 15.3569 4.48453 15.3569 4.8298L15.3569 11.3937C15.3569 11.739 15.3569 11.9116 15.3284 12.0552C15.2111 12.6447 14.7502 13.1056 14.1607 13.2228C14.0171 13.2514 13.8445 13.2514 13.4992 13.2514C13.1539 13.2514 12.9813 13.2514 12.8377 13.2228C12.2482 13.1056 11.7873 12.6447 11.6701 12.0552C11.6415 11.9116 11.6415 11.739 11.6415 11.3937L11.6415 4.8298C11.6415 4.48453 11.6415 4.31189 11.6701 4.16833C11.7873 3.57877 12.2482 3.11792 12.8377 3.00064C12.9813 2.97211 13.1539 2.97211 13.4992 2.97211ZM8.46401 5.84921C8.32045 5.82065 8.14781 5.82065 7.80253 5.82065C7.45726 5.82065 7.28462 5.82065 7.14106 5.84921C6.55151 5.96646 6.09065 6.42734 5.97338 7.01688C5.94483 7.16043 5.94483 7.33307 5.94483 7.67834L5.94483 11.3938C5.94483 11.739 5.94483 11.9117 5.97338 12.0552C6.09065 12.6448 6.55151 13.1057 7.14106 13.2229C7.28462 13.2515 7.45726 13.2515 7.80253 13.2515C8.14781 13.2515 8.32045 13.2515 8.46401 13.2229C9.05356 13.1057 9.51442 12.6448 9.63168 12.0552C9.66024 11.9117 9.66024 11.739 9.66024 11.3938L9.66024 7.67834C9.66024 7.33307 9.66024 7.16043 9.63168 7.01688C9.51442 6.42734 9.05356 5.96646 8.46401 5.84921ZM1.8577 8.29749C2.20298 8.29749 2.37562 8.29749 2.51918 8.32605C3.10873 8.4433 3.56959 8.90417 3.68686 9.49371C3.71541 9.63727 3.71541 9.80991 3.71541 10.1552L3.71541 11.3936C3.71541 11.7389 3.71541 11.9116 3.68686 12.0551C3.56959 12.6447 3.10873 13.1055 2.51918 13.2228C2.37562 13.2514 2.20298 13.2514 1.8577 13.2514C1.51243 13.2514 1.33979 13.2514 1.19623 13.2228C0.606682 13.1055 0.145824 12.6447 0.0285568 12.0551C0 11.9116 0 11.7389 0 11.3936L0 10.1552C0 9.80991 0 9.63727 0.0285568 9.49371C0.145824 8.90417 0.606682 8.4433 1.19623 8.32605C1.33979 8.29749 1.51243 8.29749 1.8577 8.29749Z" clip-rule="evenodd" fill="#FFFFFF" fill-opacity="1.000000" fill-rule="evenodd"/>
</svg>
