<svg width="19.072449" height="13.693848" viewBox="0 0 19.0724 13.6938" fill="none" xmlns="http://www.w3.org/2000/svg" xmlns:xlink="http://www.w3.org/1999/xlink">
	<desc>
			Created with Pixso.
	</desc>
	<defs/>
	<path id="Wi-Fi" d="M16.971 5.81409C14.9654 3.90738 12.304 2.84409 9.53675 2.84396C6.76923 2.84396 4.10748 3.90726 2.10169 5.81409C1.95075 5.96152 1.70917 5.95966 1.56054 5.80994L0.116474 4.35297C0.0412197 4.27707 -0.000703812 4.17432 9.53674e-06 4.06744C0.000707626 3.96057 0.0439682 3.8584 0.12022 3.78351C5.38412 -1.26117 13.6885 -1.26117 18.9524 3.78351C19.0286 3.85846 19.0718 3.96066 19.0724 4.06754C19.0731 4.17441 19.0311 4.27713 18.9558 4.35297L17.5121 5.80994C17.3634 5.95944 17.122 5.9613 16.971 5.81409ZM9.53718 7.58429C11.0576 7.58417 12.5238 8.14932 13.6508 9.16986C13.8032 9.3147 14.0433 9.31155 14.1919 9.16278L15.6339 7.70584C15.7099 7.62939 15.752 7.52573 15.7509 7.418C15.7498 7.31027 15.7056 7.20749 15.6281 7.13263C12.1961 3.94016 6.88118 3.94016 3.44918 7.13263C3.37166 7.20749 3.32742 7.31033 3.32641 7.41809C3.32539 7.52585 3.36767 7.62952 3.44376 7.70584L4.88533 9.16278C5.03391 9.31155 5.27405 9.3147 5.42648 9.16986C6.55275 8.14999 8.01776 7.5849 9.53718 7.58429ZM12.4252 10.7731C12.4274 10.8812 12.3849 10.9853 12.3078 11.061L9.81351 13.5782C9.74039 13.6522 9.64071 13.6938 9.53669 13.6938C9.43267 13.6938 9.33299 13.6522 9.25987 13.5782L6.76514 11.061C6.68807 10.9853 6.64567 10.8811 6.64796 10.7731C6.65024 10.665 6.69701 10.5627 6.77721 10.4903C8.37017 9.14297 10.7032 9.14297 12.2962 10.4903C12.3763 10.5628 12.423 10.6651 12.4252 10.7731Z" clip-rule="evenodd" fill="#FFFFFF" fill-opacity="1.000000" fill-rule="evenodd"/>
</svg>
